<svg xmlns="http://www.w3.org/2000/svg" width="32" height="400" viewBox="0 0 32 400" fill="#34343a"><rect x="8" y="0.5" width="24" height="1"/><rect x="16" y="8.5" width="16" height="1"/><rect x="17" y="16.5" width="15" height="1"/><rect x="18" y="24.5" width="14" height="1"/><rect x="15" y="32.5" width="17" height="1"/><rect x="8" y="40.5" width="24" height="1"/><rect x="16" y="48.5" width="16" height="1"/><rect x="22" y="56.5" width="10" height="1"/><rect x="25" y="64.5" width="7" height="1"/><rect x="24" y="72.5" width="8" height="1"/><rect x="8" y="80.5" width="24" height="1"/><rect x="24" y="88.5" width="8" height="1"/><rect x="26" y="96.5" width="6" height="1"/><rect x="25" y="104.5" width="7" height="1"/><rect x="19" y="112.5" width="13" height="1"/><rect x="8" y="120.5" width="24" height="1"/><rect x="15" y="128.5" width="17" height="1"/><rect x="18" y="136.5" width="14" height="1"/><rect x="17" y="144.5" width="15" height="1"/><rect x="15" y="152.5" width="17" height="1"/><rect x="8" y="160.5" width="24" height="1"/><rect x="20" y="168.5" width="12" height="1"/><rect x="25" y="176.5" width="7" height="1"/><rect x="25" y="184.5" width="7" height="1"/><rect x="23" y="192.5" width="9" height="1"/><rect x="8" y="200.5" width="24" height="1"/><rect x="25" y="208.5" width="7" height="1"/><rect x="25" y="216.5" width="7" height="1"/><rect x="21" y="224.5" width="11" height="1"/><rect x="15" y="232.5" width="17" height="1"/><rect x="8" y="240.5" width="24" height="1"/><rect x="16" y="248.5" width="16" height="1"/><rect x="18" y="256.5" width="14" height="1"/><rect x="16" y="264.5" width="16" height="1"/><rect x="15" y="272.5" width="17" height="1"/><rect x="8" y="280.5" width="24" height="1"/><rect x="24" y="288.5" width="8" height="1"/><rect x="26" y="296.5" width="6" height="1"/><rect x="25" y="304.5" width="7" height="1"/><rect x="22" y="312.5" width="10" height="1"/><rect x="8" y="320.5" width="24" height="1"/><rect x="24" y="328.5" width="8" height="1"/><rect x="22" y="336.5" width="10" height="1"/><rect x="17" y="344.5" width="15" height="1"/><rect x="13" y="352.5" width="19" height="1"/><rect x="8" y="360.5" width="24" height="1"/><rect x="18" y="368.5" width="14" height="1"/><rect x="18" y="376.5" width="14" height="1"/><rect x="16" y="384.5" width="16" height="1"/><rect x="17" y="392.5" width="15" height="1"/></svg>